<mxfile host="drawio-plugin" modified="2022-01-09T15:35:47.256Z" agent="5.0 (Macintosh; Intel Mac OS X 11_5_2) AppleWebKit/537.36 (KHTML, like Gecko) Chrome/89.0.4389.90 Safari/537.36" etag="FLsc_L6HaAtttF2cg9kr" version="14.7.4" type="embed"><diagram id="23iRSUPoRavnBvh4doch" name="Page-1"><mxGraphModel dx="1971" dy="760" grid="1" gridSize="10" guides="1" tooltips="1" connect="1" arrows="1" fold="1" page="1" pageScale="1" pageWidth="827" pageHeight="1169" math="0" shadow="0"><root><mxCell id="0"/><mxCell id="1" parent="0"/><mxCell id="2" value="&lt;font style=&quot;font-size: 18px&quot;&gt;仲裁者/中介者模式&lt;/font&gt;" style="text;html=1;strokeColor=none;fillColor=none;align=center;verticalAlign=middle;whiteSpace=wrap;rounded=0;" vertex="1" parent="1"><mxGeometry x="140" y="70" width="200" height="20" as="geometry"/></mxCell><mxCell id="3" value="&lt;p style=&quot;margin: 0px ; margin-top: 4px ; text-align: center&quot;&gt;&lt;i&gt;&amp;lt;&amp;lt;Interface&amp;gt;&amp;gt;&lt;/i&gt;&lt;br&gt;&lt;b&gt;Mediator&lt;/b&gt;&lt;/p&gt;&lt;hr size=&quot;1&quot;&gt;&lt;p style=&quot;margin: 0px ; margin-left: 4px&quot;&gt;&lt;br&gt;&lt;/p&gt;&lt;hr size=&quot;1&quot;&gt;&lt;p style=&quot;margin: 0px ; margin-left: 4px&quot;&gt;+ createColleagues()&lt;br&gt;+ colleagueChanged()&lt;/p&gt;" style="verticalAlign=top;align=left;overflow=fill;fontSize=12;fontFamily=Helvetica;html=1;" vertex="1" parent="1"><mxGeometry x="113" y="240" width="190" height="110" as="geometry"/></mxCell><mxCell id="4" value="&lt;p style=&quot;margin: 0px ; margin-top: 4px ; text-align: center&quot;&gt;&lt;i&gt;&amp;lt;&amp;lt;Interface&amp;gt;&amp;gt;&lt;/i&gt;&lt;br&gt;&lt;b&gt;Colleague&lt;/b&gt;&lt;/p&gt;&lt;hr size=&quot;1&quot;&gt;&lt;p style=&quot;margin: 0px ; margin-left: 4px&quot;&gt;&lt;br&gt;&lt;/p&gt;&lt;hr size=&quot;1&quot;&gt;&lt;p style=&quot;margin: 0px ; margin-left: 4px&quot;&gt;+ setMediator()&lt;br&gt;+ setColleagueEnabled()&lt;/p&gt;" style="verticalAlign=top;align=left;overflow=fill;fontSize=12;fontFamily=Helvetica;html=1;" vertex="1" parent="1"><mxGeometry x="414" y="240" width="190" height="110" as="geometry"/></mxCell><mxCell id="5" value="Frame" style="swimlane;fontStyle=1;align=center;verticalAlign=top;childLayout=stackLayout;horizontal=1;startSize=26;horizontalStack=0;resizeParent=1;resizeParentMax=0;resizeLast=0;collapsible=1;marginBottom=0;" vertex="1" parent="1"><mxGeometry x="-190" y="426" width="160" height="34" as="geometry"/></mxCell><mxCell id="7" value="" style="line;strokeWidth=1;fillColor=none;align=left;verticalAlign=middle;spacingTop=-1;spacingLeft=3;spacingRight=3;rotatable=0;labelPosition=right;points=[];portConstraint=eastwest;" vertex="1" parent="5"><mxGeometry y="26" width="160" height="8" as="geometry"/></mxCell><mxCell id="9" value="LoginFrame" style="swimlane;fontStyle=1;align=center;verticalAlign=top;childLayout=stackLayout;horizontal=1;startSize=26;horizontalStack=0;resizeParent=1;resizeParentMax=0;resizeLast=0;collapsible=1;marginBottom=0;" vertex="1" parent="1"><mxGeometry x="80" y="404" width="160" height="294" as="geometry"/></mxCell><mxCell id="10" value="+ checkGuest" style="text;strokeColor=none;fillColor=none;align=left;verticalAlign=top;spacingLeft=4;spacingRight=4;overflow=hidden;rotatable=0;points=[[0,0.5],[1,0.5]];portConstraint=eastwest;" vertex="1" parent="9"><mxGeometry y="26" width="160" height="26" as="geometry"/></mxCell><mxCell id="13" value="+ checkLogin" style="text;strokeColor=none;fillColor=none;align=left;verticalAlign=top;spacingLeft=4;spacingRight=4;overflow=hidden;rotatable=0;points=[[0,0.5],[1,0.5]];portConstraint=eastwest;" vertex="1" parent="9"><mxGeometry y="52" width="160" height="26" as="geometry"/></mxCell><mxCell id="14" value="+ textUser" style="text;strokeColor=none;fillColor=none;align=left;verticalAlign=top;spacingLeft=4;spacingRight=4;overflow=hidden;rotatable=0;points=[[0,0.5],[1,0.5]];portConstraint=eastwest;" vertex="1" parent="9"><mxGeometry y="78" width="160" height="26" as="geometry"/></mxCell><mxCell id="15" value="+ textPass" style="text;strokeColor=none;fillColor=none;align=left;verticalAlign=top;spacingLeft=4;spacingRight=4;overflow=hidden;rotatable=0;points=[[0,0.5],[1,0.5]];portConstraint=eastwest;" vertex="1" parent="9"><mxGeometry y="104" width="160" height="26" as="geometry"/></mxCell><mxCell id="16" value="+ buttonOk" style="text;strokeColor=none;fillColor=none;align=left;verticalAlign=top;spacingLeft=4;spacingRight=4;overflow=hidden;rotatable=0;points=[[0,0.5],[1,0.5]];portConstraint=eastwest;" vertex="1" parent="9"><mxGeometry y="130" width="160" height="26" as="geometry"/></mxCell><mxCell id="17" value="+ buttonCancel" style="text;strokeColor=none;fillColor=none;align=left;verticalAlign=top;spacingLeft=4;spacingRight=4;overflow=hidden;rotatable=0;points=[[0,0.5],[1,0.5]];portConstraint=eastwest;" vertex="1" parent="9"><mxGeometry y="156" width="160" height="26" as="geometry"/></mxCell><mxCell id="11" value="" style="line;strokeWidth=1;fillColor=none;align=left;verticalAlign=middle;spacingTop=-1;spacingLeft=3;spacingRight=3;rotatable=0;labelPosition=right;points=[];portConstraint=eastwest;" vertex="1" parent="9"><mxGeometry y="182" width="160" height="8" as="geometry"/></mxCell><mxCell id="12" value="+ createColleagues" style="text;strokeColor=none;fillColor=none;align=left;verticalAlign=top;spacingLeft=4;spacingRight=4;overflow=hidden;rotatable=0;points=[[0,0.5],[1,0.5]];portConstraint=eastwest;" vertex="1" parent="9"><mxGeometry y="190" width="160" height="26" as="geometry"/></mxCell><mxCell id="18" value="+ colleagueChanged" style="text;strokeColor=none;fillColor=none;align=left;verticalAlign=top;spacingLeft=4;spacingRight=4;overflow=hidden;rotatable=0;points=[[0,0.5],[1,0.5]];portConstraint=eastwest;" vertex="1" parent="9"><mxGeometry y="216" width="160" height="26" as="geometry"/></mxCell><mxCell id="19" value="+ userpassChanged" style="text;strokeColor=none;fillColor=none;align=left;verticalAlign=top;spacingLeft=4;spacingRight=4;overflow=hidden;rotatable=0;points=[[0,0.5],[1,0.5]];portConstraint=eastwest;" vertex="1" parent="9"><mxGeometry y="242" width="160" height="26" as="geometry"/></mxCell><mxCell id="20" value="+ actionPerformed" style="text;strokeColor=none;fillColor=none;align=left;verticalAlign=top;spacingLeft=4;spacingRight=4;overflow=hidden;rotatable=0;points=[[0,0.5],[1,0.5]];portConstraint=eastwest;" vertex="1" parent="9"><mxGeometry y="268" width="160" height="26" as="geometry"/></mxCell><mxCell id="21" value="ColleagueButton" style="swimlane;fontStyle=1;align=center;verticalAlign=top;childLayout=stackLayout;horizontal=1;startSize=26;horizontalStack=0;resizeParent=1;resizeParentMax=0;resizeLast=0;collapsible=1;marginBottom=0;" vertex="1" parent="1"><mxGeometry x="429" y="404" width="160" height="112" as="geometry"/></mxCell><mxCell id="22" value="+ mediator" style="text;strokeColor=none;fillColor=none;align=left;verticalAlign=top;spacingLeft=4;spacingRight=4;overflow=hidden;rotatable=0;points=[[0,0.5],[1,0.5]];portConstraint=eastwest;" vertex="1" parent="21"><mxGeometry y="26" width="160" height="26" as="geometry"/></mxCell><mxCell id="23" value="" style="line;strokeWidth=1;fillColor=none;align=left;verticalAlign=middle;spacingTop=-1;spacingLeft=3;spacingRight=3;rotatable=0;labelPosition=right;points=[];portConstraint=eastwest;" vertex="1" parent="21"><mxGeometry y="52" width="160" height="8" as="geometry"/></mxCell><mxCell id="24" value="+ setMediator()" style="text;strokeColor=none;fillColor=none;align=left;verticalAlign=top;spacingLeft=4;spacingRight=4;overflow=hidden;rotatable=0;points=[[0,0.5],[1,0.5]];portConstraint=eastwest;" vertex="1" parent="21"><mxGeometry y="60" width="160" height="26" as="geometry"/></mxCell><mxCell id="25" value="+ ColleagueEnabled()" style="text;strokeColor=none;fillColor=none;align=left;verticalAlign=top;spacingLeft=4;spacingRight=4;overflow=hidden;rotatable=0;points=[[0,0.5],[1,0.5]];portConstraint=eastwest;" vertex="1" parent="21"><mxGeometry y="86" width="160" height="26" as="geometry"/></mxCell><mxCell id="28" value="ColleagueTextField" style="swimlane;fontStyle=1;align=center;verticalAlign=top;childLayout=stackLayout;horizontal=1;startSize=26;horizontalStack=0;resizeParent=1;resizeParentMax=0;resizeLast=0;collapsible=1;marginBottom=0;" vertex="1" parent="1"><mxGeometry x="429" y="565" width="160" height="138" as="geometry"/></mxCell><mxCell id="29" value="+ mediator" style="text;strokeColor=none;fillColor=none;align=left;verticalAlign=top;spacingLeft=4;spacingRight=4;overflow=hidden;rotatable=0;points=[[0,0.5],[1,0.5]];portConstraint=eastwest;" vertex="1" parent="28"><mxGeometry y="26" width="160" height="26" as="geometry"/></mxCell><mxCell id="30" value="" style="line;strokeWidth=1;fillColor=none;align=left;verticalAlign=middle;spacingTop=-1;spacingLeft=3;spacingRight=3;rotatable=0;labelPosition=right;points=[];portConstraint=eastwest;" vertex="1" parent="28"><mxGeometry y="52" width="160" height="8" as="geometry"/></mxCell><mxCell id="31" value="+ setMediator()" style="text;strokeColor=none;fillColor=none;align=left;verticalAlign=top;spacingLeft=4;spacingRight=4;overflow=hidden;rotatable=0;points=[[0,0.5],[1,0.5]];portConstraint=eastwest;" vertex="1" parent="28"><mxGeometry y="60" width="160" height="26" as="geometry"/></mxCell><mxCell id="32" value="+ ColleagueEnabled()" style="text;strokeColor=none;fillColor=none;align=left;verticalAlign=top;spacingLeft=4;spacingRight=4;overflow=hidden;rotatable=0;points=[[0,0.5],[1,0.5]];portConstraint=eastwest;" vertex="1" parent="28"><mxGeometry y="86" width="160" height="26" as="geometry"/></mxCell><mxCell id="39" value="+ textValueChanged()" style="text;strokeColor=none;fillColor=none;align=left;verticalAlign=top;spacingLeft=4;spacingRight=4;overflow=hidden;rotatable=0;points=[[0,0.5],[1,0.5]];portConstraint=eastwest;" vertex="1" parent="28"><mxGeometry y="112" width="160" height="26" as="geometry"/></mxCell><mxCell id="33" value="ColleagueCheckbox" style="swimlane;fontStyle=1;align=center;verticalAlign=top;childLayout=stackLayout;horizontal=1;startSize=26;horizontalStack=0;resizeParent=1;resizeParentMax=0;resizeLast=0;collapsible=1;marginBottom=0;" vertex="1" parent="1"><mxGeometry x="429" y="740" width="160" height="138" as="geometry"/></mxCell><mxCell id="34" value="+ mediator" style="text;strokeColor=none;fillColor=none;align=left;verticalAlign=top;spacingLeft=4;spacingRight=4;overflow=hidden;rotatable=0;points=[[0,0.5],[1,0.5]];portConstraint=eastwest;" vertex="1" parent="33"><mxGeometry y="26" width="160" height="26" as="geometry"/></mxCell><mxCell id="35" value="" style="line;strokeWidth=1;fillColor=none;align=left;verticalAlign=middle;spacingTop=-1;spacingLeft=3;spacingRight=3;rotatable=0;labelPosition=right;points=[];portConstraint=eastwest;" vertex="1" parent="33"><mxGeometry y="52" width="160" height="8" as="geometry"/></mxCell><mxCell id="36" value="+ setMediator()" style="text;strokeColor=none;fillColor=none;align=left;verticalAlign=top;spacingLeft=4;spacingRight=4;overflow=hidden;rotatable=0;points=[[0,0.5],[1,0.5]];portConstraint=eastwest;" vertex="1" parent="33"><mxGeometry y="60" width="160" height="26" as="geometry"/></mxCell><mxCell id="37" value="+ ColleagueEnabled()" style="text;strokeColor=none;fillColor=none;align=left;verticalAlign=top;spacingLeft=4;spacingRight=4;overflow=hidden;rotatable=0;points=[[0,0.5],[1,0.5]];portConstraint=eastwest;" vertex="1" parent="33"><mxGeometry y="86" width="160" height="26" as="geometry"/></mxCell><mxCell id="38" value="+ itemStateChanged()" style="text;strokeColor=none;fillColor=none;align=left;verticalAlign=top;spacingLeft=4;spacingRight=4;overflow=hidden;rotatable=0;points=[[0,0.5],[1,0.5]];portConstraint=eastwest;" vertex="1" parent="33"><mxGeometry y="112" width="160" height="26" as="geometry"/></mxCell><mxCell id="40" value="Button" style="swimlane;fontStyle=1;align=center;verticalAlign=top;childLayout=stackLayout;horizontal=1;startSize=26;horizontalStack=0;resizeParent=1;resizeParentMax=0;resizeLast=0;collapsible=1;marginBottom=0;" vertex="1" parent="1"><mxGeometry x="700" y="426" width="160" height="34" as="geometry"/></mxCell><mxCell id="42" value="" style="line;strokeWidth=1;fillColor=none;align=left;verticalAlign=middle;spacingTop=-1;spacingLeft=3;spacingRight=3;rotatable=0;labelPosition=right;points=[];portConstraint=eastwest;" vertex="1" parent="40"><mxGeometry y="26" width="160" height="8" as="geometry"/></mxCell><mxCell id="45" value="TextField" style="swimlane;fontStyle=1;align=center;verticalAlign=top;childLayout=stackLayout;horizontal=1;startSize=26;horizontalStack=0;resizeParent=1;resizeParentMax=0;resizeLast=0;collapsible=1;marginBottom=0;" vertex="1" parent="1"><mxGeometry x="700" y="590" width="160" height="34" as="geometry"/></mxCell><mxCell id="46" value="" style="line;strokeWidth=1;fillColor=none;align=left;verticalAlign=middle;spacingTop=-1;spacingLeft=3;spacingRight=3;rotatable=0;labelPosition=right;points=[];portConstraint=eastwest;" vertex="1" parent="45"><mxGeometry y="26" width="160" height="8" as="geometry"/></mxCell><mxCell id="47" value="Checkbox" style="swimlane;fontStyle=1;align=center;verticalAlign=top;childLayout=stackLayout;horizontal=1;startSize=26;horizontalStack=0;resizeParent=1;resizeParentMax=0;resizeLast=0;collapsible=1;marginBottom=0;" vertex="1" parent="1"><mxGeometry x="700" y="730" width="160" height="34" as="geometry"/></mxCell><mxCell id="48" value="" style="line;strokeWidth=1;fillColor=none;align=left;verticalAlign=middle;spacingTop=-1;spacingLeft=3;spacingRight=3;rotatable=0;labelPosition=right;points=[];portConstraint=eastwest;" vertex="1" parent="47"><mxGeometry y="26" width="160" height="8" as="geometry"/></mxCell><mxCell id="50" value="Extends" style="endArrow=block;endSize=16;endFill=0;html=1;entryX=1;entryY=0.5;entryDx=0;entryDy=0;exitX=0;exitY=0.5;exitDx=0;exitDy=0;" edge="1" parent="1" source="10" target="5"><mxGeometry width="160" relative="1" as="geometry"><mxPoint x="10" y="890" as="sourcePoint"/><mxPoint x="70" y="500" as="targetPoint"/></mxGeometry></mxCell><mxCell id="51" value="" style="endArrow=block;dashed=1;endFill=0;endSize=12;html=1;entryX=0.25;entryY=1;entryDx=0;entryDy=0;exitX=0.5;exitY=0;exitDx=0;exitDy=0;" edge="1" parent="1" source="9" target="3"><mxGeometry width="160" relative="1" as="geometry"><mxPoint x="-30" y="590" as="sourcePoint"/><mxPoint x="130" y="590" as="targetPoint"/></mxGeometry></mxCell><mxCell id="54" value="" style="endArrow=block;dashed=1;endFill=0;endSize=12;html=1;entryX=0.5;entryY=1;entryDx=0;entryDy=0;exitX=0.5;exitY=0;exitDx=0;exitDy=0;" edge="1" parent="1" source="21" target="4"><mxGeometry width="160" relative="1" as="geometry"><mxPoint x="240" y="750" as="sourcePoint"/><mxPoint x="400" y="750" as="targetPoint"/></mxGeometry></mxCell><mxCell id="56" value="" style="endArrow=diamondThin;endFill=0;endSize=24;html=1;entryX=1;entryY=0.5;entryDx=0;entryDy=0;exitX=0;exitY=0.5;exitDx=0;exitDy=0;" edge="1" parent="1" source="22" target="10"><mxGeometry width="160" relative="1" as="geometry"><mxPoint x="450" y="546.5" as="sourcePoint"/><mxPoint x="290" y="546.5" as="targetPoint"/></mxGeometry></mxCell><mxCell id="57" value="" style="endArrow=diamondThin;endFill=0;endSize=24;html=1;entryX=1;entryY=0.5;entryDx=0;entryDy=0;exitX=0;exitY=0.5;exitDx=0;exitDy=0;" edge="1" parent="1" source="29" target="12"><mxGeometry width="160" relative="1" as="geometry"><mxPoint x="500" y="550" as="sourcePoint"/><mxPoint x="340" y="550" as="targetPoint"/></mxGeometry></mxCell><mxCell id="58" value="" style="endArrow=diamondThin;endFill=0;endSize=24;html=1;entryX=1;entryY=0.5;entryDx=0;entryDy=0;exitX=0;exitY=0.5;exitDx=0;exitDy=0;" edge="1" parent="1" source="34" target="20"><mxGeometry width="160" relative="1" as="geometry"><mxPoint x="230" y="830" as="sourcePoint"/><mxPoint x="330" y="690" as="targetPoint"/></mxGeometry></mxCell><mxCell id="59" value="Extends" style="endArrow=block;endSize=16;endFill=0;html=1;entryX=0;entryY=0.5;entryDx=0;entryDy=0;exitX=1;exitY=0.5;exitDx=0;exitDy=0;" edge="1" parent="1" source="22" target="40"><mxGeometry width="160" relative="1" as="geometry"><mxPoint x="640" y="490" as="sourcePoint"/><mxPoint x="800" y="490" as="targetPoint"/></mxGeometry></mxCell><mxCell id="60" value="Extends" style="endArrow=block;endSize=16;endFill=0;html=1;exitX=1;exitY=0.5;exitDx=0;exitDy=0;" edge="1" parent="1" source="29" target="45"><mxGeometry width="160" relative="1" as="geometry"><mxPoint x="620" y="550" as="sourcePoint"/><mxPoint x="780" y="550" as="targetPoint"/></mxGeometry></mxCell><mxCell id="61" value="Extends" style="endArrow=block;endSize=16;endFill=0;html=1;exitX=1;exitY=0.5;exitDx=0;exitDy=0;entryX=0;entryY=0.5;entryDx=0;entryDy=0;" edge="1" parent="1" source="34" target="47"><mxGeometry width="160" relative="1" as="geometry"><mxPoint x="620" y="680" as="sourcePoint"/><mxPoint x="780" y="680" as="targetPoint"/></mxGeometry></mxCell><mxCell id="62" value="" style="endArrow=block;dashed=1;endFill=0;endSize=12;html=1;entryX=0;entryY=0.75;entryDx=0;entryDy=0;exitX=0.006;exitY=0.269;exitDx=0;exitDy=0;exitPerimeter=0;" edge="1" parent="1" source="31" target="4"><mxGeometry width="160" relative="1" as="geometry"><mxPoint x="340" y="550" as="sourcePoint"/><mxPoint x="380" y="400" as="targetPoint"/><Array as="points"><mxPoint x="390" y="632"/><mxPoint x="390" y="323"/></Array></mxGeometry></mxCell><mxCell id="63" value="" style="endArrow=block;dashed=1;endFill=0;endSize=12;html=1;entryX=0;entryY=0.5;entryDx=0;entryDy=0;exitX=0;exitY=0.5;exitDx=0;exitDy=0;" edge="1" parent="1" source="37" target="4"><mxGeometry width="160" relative="1" as="geometry"><mxPoint x="200" y="890" as="sourcePoint"/><mxPoint x="380" y="710" as="targetPoint"/><Array as="points"><mxPoint x="370" y="839"/><mxPoint x="360" y="839"/><mxPoint x="360" y="295"/></Array></mxGeometry></mxCell><mxCell id="64" value="Use" style="endArrow=open;endSize=12;dashed=1;html=1;entryX=0.874;entryY=1.009;entryDx=0;entryDy=0;entryPerimeter=0;exitX=0;exitY=0.5;exitDx=0;exitDy=0;" edge="1" parent="1" source="22" target="3"><mxGeometry width="160" relative="1" as="geometry"><mxPoint x="280" y="550" as="sourcePoint"/><mxPoint x="280" y="360" as="targetPoint"/><Array as="points"><mxPoint x="310" y="430"/></Array></mxGeometry></mxCell><mxCell id="65" value="Use" style="endArrow=open;endSize=12;dashed=1;html=1;exitX=0;exitY=0.5;exitDx=0;exitDy=0;" edge="1" parent="1" source="29"><mxGeometry width="160" relative="1" as="geometry"><mxPoint x="280" y="560" as="sourcePoint"/><mxPoint x="280" y="350" as="targetPoint"/><Array as="points"><mxPoint x="340" y="570"/></Array></mxGeometry></mxCell><mxCell id="66" value="Use" style="endArrow=open;endSize=12;dashed=1;html=1;exitX=0;exitY=0.5;exitDx=0;exitDy=0;" edge="1" parent="1" source="34"><mxGeometry width="160" relative="1" as="geometry"><mxPoint x="250" y="770" as="sourcePoint"/><mxPoint x="280" y="350" as="targetPoint"/><Array as="points"><mxPoint x="340" y="710"/></Array></mxGeometry></mxCell></root></mxGraphModel></diagram></mxfile>